<?xml version="1.0" encoding="UTF-8" standalone="no"?>
<!-- Created with Inkscape (http://www.inkscape.org/) -->

<svg
   xmlns:dc="http://purl.org/dc/elements/1.1/"
   xmlns:cc="http://creativecommons.org/ns#"
   xmlns:rdf="http://www.w3.org/1999/02/22-rdf-syntax-ns#"
   xmlns:svg="http://www.w3.org/2000/svg"
   xmlns="http://www.w3.org/2000/svg"
   xmlns:xlink="http://www.w3.org/1999/xlink"
   xmlns:sodipodi="http://sodipodi.sourceforge.net/DTD/sodipodi-0.dtd"
   xmlns:inkscape="http://www.inkscape.org/namespaces/inkscape"
   width="210mm"
   height="297mm"
   viewBox="0 0 210 297"
   version="1.1"
   id="svg8"
   inkscape:version="0.92.3 (2405546, 2018-03-11)"
   sodipodi:docname="rysunek_logo_2_Dąda.svg">
  <defs
     id="defs2" />
  <sodipodi:namedview
     id="base"
     pagecolor="#ffffff"
     bordercolor="#666666"
     borderopacity="1.0"
     inkscape:pageopacity="0.0"
     inkscape:pageshadow="2"
     inkscape:zoom="0.35"
     inkscape:cx="824.96881"
     inkscape:cy="752.47341"
     inkscape:document-units="mm"
     inkscape:current-layer="layer1"
     showgrid="false"
     inkscape:snap-smooth-nodes="true"
     inkscape:object-paths="false"
     inkscape:object-nodes="false"
     inkscape:window-width="1853"
     inkscape:window-height="1021"
     inkscape:window-x="67"
     inkscape:window-y="27"
     inkscape:window-maximized="1"
     inkscape:measure-start="0,0"
     inkscape:measure-end="0,0" />
  <metadata
     id="metadata5">
    <rdf:RDF>
      <cc:Work
         rdf:about="">
        <dc:format>image/svg+xml</dc:format>
        <dc:type
           rdf:resource="http://purl.org/dc/dcmitype/StillImage" />
        <dc:title></dc:title>
      </cc:Work>
    </rdf:RDF>
  </metadata>
  <g
     inkscape:label="Layer 1"
     inkscape:groupmode="layer"
     id="layer1">
    <path
       style="fill:#00ffff;stroke-width:0.26990336"
       id="path10"
       sodipodi:type="arc"
       sodipodi:cx="166.68744"
       sodipodi:cy="105.45827"
       sodipodi:rx="106.53876"
       sodipodi:ry="95.900604"
       sodipodi:start="0.17138779"
       sodipodi:end="0.17104541"
       d="M 271.6653,121.81411 A 106.53876,95.900604 0 0 1 148.52624,199.95523 106.53876,95.900604 0 0 1 61.706469,89.118599 106.53876,95.900604 0 0 1 184.83066,10.958503 106.53876,95.900604 0 0 1 271.67151,121.78176 L 166.68744,105.45827 Z"
       transform="matrix(0.91193455,0.41033568,-0.43067961,0.90250489,0,0)" />
    <flowRoot
       xml:space="preserve"
       id="flowRoot20"
       style="font-style:normal;font-weight:normal;font-size:40px;line-height:1.25;font-family:sans-serif;letter-spacing:0px;word-spacing:0px;fill:#000000;fill-opacity:1;stroke:none"
       transform="scale(0.26458333)"><flowRegion
         id="flowRegion22"><rect
           id="rect24"
           width="500"
           height="277.14285"
           x="-57.142857"
           y="-306.05176" /></flowRegion><flowPara
         id="flowPara26" /></flowRoot>    <flowRoot
       xml:space="preserve"
       id="flowRoot52"
       style="font-style:normal;font-weight:normal;font-size:133.33332825px;line-height:1.25;font-family:sans-serif;letter-spacing:0px;word-spacing:0px;fill:#000000;fill-opacity:1;stroke:none"><flowRegion
         id="flowRegion54"><rect
           id="rect56"
           width="1091.4286"
           height="600"
           x="-488.57144"
           y="-720.33746" /></flowRegion><flowPara
         id="flowPara58" /></flowRoot>    <flowRoot
       xml:space="preserve"
       id="flowRoot60"
       style="font-style:normal;font-weight:normal;font-size:666.66668701px;line-height:1.25;font-family:sans-serif;letter-spacing:0px;word-spacing:0px;fill:#000000;fill-opacity:1;stroke:none"
       transform="scale(0.26458333)"><flowRegion
         id="flowRegion62"><rect
           id="rect64"
           width="908.57141"
           height="614.28571"
           x="-34.285713"
           y="371.09113" /></flowRegion><flowPara
         id="flowPara66">~</flowPara></flowRoot>    <flowRoot
       xml:space="preserve"
       id="flowRoot68"
       style="font-style:normal;font-weight:normal;font-size:533.33331299px;line-height:1.25;font-family:sans-serif;letter-spacing:0px;word-spacing:0px;fill:#ffffff;fill-opacity:1;stroke:none"
       transform="matrix(0.62008145,0.0333072,0,0.73681695,26.921808,-331.01297)"><flowRegion
         id="flowRegion70"
         style="fill:#ffffff"><rect
           id="rect72"
           width="1051.4286"
           height="625.71429"
           x="-94.285713"
           y="362.51968"
           style="fill:#ffffff" /></flowRegion><flowPara
         id="flowPara74">~</flowPara></flowRoot>    <g
       aria-label="~"
       transform="matrix(0.62684735,0,0,0.85157617,388.04883,-360.32153)"
       style="font-style:normal;font-weight:normal;font-size:533.33331299px;line-height:1.25;font-family:sans-serif;letter-spacing:0px;word-spacing:0px;fill:#ffff00;fill-opacity:1;stroke:#000000;stroke-opacity:1"
       id="flowRoot68-3">
      <path
         d="m 296.07941,621.6341 v 46.35417 q -27.34375,20.57292 -50.78125,29.42708 -23.17708,8.85417 -48.43749,8.85417 -28.64584,0 -66.66667,-15.36458 -2.86458,-1.04167 -4.16666,-1.5625 -1.82292,-0.78125 -5.72917,-2.08334 -40.364583,-16.14583 -64.843749,-16.14583 -22.916665,0 -45.312498,10.15625 -22.395832,9.89583 -47.916665,31.51041 v -46.35416 q 27.343749,-20.57292 50.520832,-29.42708 23.437499,-9.11459 48.697914,-9.11459 28.645833,0 66.927086,15.625 2.60416,1.04167 3.90625,1.5625 2.08333,0.78125 5.72916,2.08334 40.36458,16.14583 64.84375,16.14583 22.39583,0 44.27083,-9.89583 22.13542,-9.89584 48.95833,-31.77084 z"
         id="path4648"
         inkscape:connector-curvature="0"
         style="fill:#ffffff;stroke:#000000;stroke-width:14.82435894;stroke-linecap:round;stroke-miterlimit:4;stroke-dasharray:none;stroke-opacity:1" />
    </g>
    <path
       style="fill:#0000ff;stroke-width:2.85714293"
       d="M 384.0135,981.39273 C 283.65032,970.08048 190.08238,925.93893 121.0504,857.33749 84.042764,820.56066 66.838647,797.1154 44.708606,753.30112 L 26.870641,717.98454 41.156355,705.31598 c 18.997106,-16.84662 58.612655,-43.82389 80.581185,-54.87393 57.31779,-28.8305 120.95614,-31.28331 184.53602,-7.11257 6.61411,2.51444 44.81137,20.36605 84.8828,39.67024 105.91234,51.02268 138.0918,60.37353 198.38365,57.64716 18.96043,-0.85739 42.83063,-3.78144 53.04492,-6.49789 41.38903,-11.00727 88.49643,-35.76935 131.42857,-69.08564 l 21.42857,-16.62905 1.8024,-24.19401 c 1.14037,-15.30718 1.52237,-6.35298 1.03997,24.37741 -0.64777,41.26473 -1.8564,52.74305 -8.0344,76.30232 -34.03388,129.78543 -146.00588,227.2368 -289.93494,252.33591 -30.89937,5.3884 -87.37497,7.39723 -116.3016,4.1368 z"
       id="path111"
       inkscape:connector-curvature="0"
       transform="scale(0.26458333)" />
    <flowRoot
       xml:space="preserve"
       id="flowRoot116"
       style="font-style:normal;font-weight:normal;font-size:40px;line-height:1.25;font-family:sans-serif;letter-spacing:0px;word-spacing:0px;fill:#000000;fill-opacity:1;stroke:none"><flowRegion
         id="flowRegion118"><rect
           id="rect120"
           width="1062.8572"
           height="400"
           x="-114.28571"
           y="433.94824" /></flowRegion><flowPara
         id="flowPara122" /></flowRoot>    <path
       style="fill:none;stroke:#000000;stroke-width:0.25042272px;stroke-linecap:butt;stroke-linejoin:miter;stroke-opacity:1"
       d="m 257.91008,78.625335 c 60.76191,-42.236494 88.00807,-29.069831 110.38838,-13.768501 21.52128,19.186829 63.33336,27.714604 98.14627,-8.595223"
       id="path2311"
       inkscape:connector-curvature="0"
       sodipodi:nodetypes="ccc" />
    <text
       xml:space="preserve"
       style="font-style:normal;font-weight:normal;font-size:22.57777786px;line-height:1.25;font-family:sans-serif;letter-spacing:0px;word-spacing:0px;fill:#000000;fill-opacity:1;stroke:none;stroke-width:0.26458332"
       id="text2315"
       transform="matrix(1,0,0,0.963169,-250.22024,108.09266)"><textPath
         xlink:href="#path2311"
         id="textPath2320"><tspan
   style="stroke-width:0.26458332"
   id="tspan2313">moje piękne lo</tspan></textPath></text>
  </g>
</svg>
